<svg xmlns="http://www.w3.org/2000/svg" width="16" height="16" viewBox="0 0 16 16">
  <metadata><?xpacket begin="﻿" id="W5M0MpCehiHzreSzNTczkc9d"?>
<x:xmpmeta xmlns:x="adobe:ns:meta/" x:xmptk="Adobe XMP Core 5.6-c138 79.159824, 2016/09/14-01:09:01        ">
   <rdf:RDF xmlns:rdf="http://www.w3.org/1999/02/22-rdf-syntax-ns#">
      <rdf:Description rdf:about=""/>
   </rdf:RDF>
</x:xmpmeta>
                                                                                                    
                                                                                                    
                                                                                                    
                                                                                                    
                                                                                                    
                                                                                                    
                                                                                                    
                                                                                                    
                                                                                                    
                                                                                                    
                                                                                                    
                                                                                                    
                                                                                                    
                                                                                                    
                                                                                                    
                                                                                                    
                                                                                                    
                                                                                                    
                                                                                                    
                                                                                                    
                           
<?xpacket end="w"?></metadata>
<defs>
    <style>
      .cls-1 {
        fill: #fff;
        fill-rule: evenodd;
      }
    </style>
  </defs>
  <path id="settings" class="cls-1" d="M15.5,9H13.926A6,6,0,0,1,12.9,11.477l1.115,1.115a0.5,0.5,0,0,1,0,.71l-0.71.71a0.5,0.5,0,0,1-.71,0l-1.1-1.1A6.014,6.014,0,0,1,9,13.964V15.5a0.5,0.5,0,0,1-.5.5h-1A0.5,0.5,0,0,1,7,15.5V13.954a6,6,0,0,1-2.48-1.05L3.408,14.012a0.5,0.5,0,0,1-.71,0l-0.71-.71a0.5,0.5,0,0,1,0-.71L3.1,11.483A6.016,6.016,0,0,1,2.06,9H0.5A0.5,0.5,0,0,1,0,8.5v-1A0.5,0.5,0,0,1,.5,7H2.081A6,6,0,0,1,3.127,4.547L1.988,3.408a0.5,0.5,0,0,1,0-.71l0.71-.71a0.5,0.5,0,0,1,.71,0l1.14,1.14A6.024,6.024,0,0,1,7,2.1V0.5A0.5,0.5,0,0,1,7.5,0h1A0.5,0.5,0,0,1,9,.5V2.1a6.022,6.022,0,0,1,2.46,1.019l1.128-1.128a0.5,0.5,0,0,1,.71,0l0.71,0.71a0.5,0.5,0,0,1,0,.71L12.887,4.533A6.031,6.031,0,0,1,13.927,7H15.5a0.5,0.5,0,0,1,.5.5v1A0.5,0.5,0,0,1,15.5,9ZM8,3.984a4.047,4.047,0,1,0,4.047,4.047A4.047,4.047,0,0,0,8,3.984Z"/>
</svg>
