<svg xmlns="http://www.w3.org/2000/svg" width="16" height="16" viewBox="0 0 16 16">
  <metadata><?xpacket begin="﻿" id="W5M0MpCehiHzreSzNTczkc9d"?>
<x:xmpmeta xmlns:x="adobe:ns:meta/" x:xmptk="Adobe XMP Core 5.6-c138 79.159824, 2016/09/14-01:09:01        ">
   <rdf:RDF xmlns:rdf="http://www.w3.org/1999/02/22-rdf-syntax-ns#">
      <rdf:Description rdf:about=""/>
   </rdf:RDF>
</x:xmpmeta>
                                                                                                    
                                                                                                    
                                                                                                    
                                                                                                    
                                                                                                    
                                                                                                    
                                                                                                    
                                                                                                    
                                                                                                    
                                                                                                    
                                                                                                    
                                                                                                    
                                                                                                    
                                                                                                    
                                                                                                    
                                                                                                    
                                                                                                    
                                                                                                    
                                                                                                    
                                                                                                    
                           
<?xpacket end="w"?></metadata>
<defs>
    <style>
      .cls-1 {
        fill: #fff;
        fill-rule: evenodd;
      }
    </style>
  </defs>
  <path id="logout" class="cls-1" d="M15,14.5A1.5,1.5,0,0,1,13.5,16H2.5A1.5,1.5,0,0,1,1,14.5V1.5A1.5,1.5,0,0,1,2.5,0h11A1.5,1.5,0,0,1,15,1.5V4H13V3a1,1,0,0,0-1-1H4A1,1,0,0,0,3,3V13a1,1,0,0,0,1,1h8a1,1,0,0,0,1-1V12h2v2.5ZM15,8l-3,2.5V9H6V7h6V5.5Z"/>
</svg>
