<svg xmlns="http://www.w3.org/2000/svg" width="16" height="16" viewBox="0 0 16 16">
  <metadata><?xpacket begin="﻿" id="W5M0MpCehiHzreSzNTczkc9d"?>
<x:xmpmeta xmlns:x="adobe:ns:meta/" x:xmptk="Adobe XMP Core 5.6-c138 79.159824, 2016/09/14-01:09:01        ">
   <rdf:RDF xmlns:rdf="http://www.w3.org/1999/02/22-rdf-syntax-ns#">
      <rdf:Description rdf:about=""/>
   </rdf:RDF>
</x:xmpmeta>
                                                                                                    
                                                                                                    
                                                                                                    
                                                                                                    
                                                                                                    
                                                                                                    
                                                                                                    
                                                                                                    
                                                                                                    
                                                                                                    
                                                                                                    
                                                                                                    
                                                                                                    
                                                                                                    
                                                                                                    
                                                                                                    
                                                                                                    
                                                                                                    
                                                                                                    
                                                                                                    
                           
<?xpacket end="w"?></metadata>
<defs>
    <style>
      .cls-1 {
        fill: #fff;
        fill-rule: evenodd;
      }
    </style>
  </defs>
  <path id="user_" data-name="user\" class="cls-1" d="M1.013,13.216A7.284,7.284,0,0,1,3.37,7.442a7.741,7.741,0,0,0,9.268,0h0A7.282,7.282,0,0,1,15,13.216,10.276,10.276,0,0,1,1.013,13.216ZM12.007,10s-3.18,2.188-7.982,0a3.648,3.648,0,0,0-1,2A7.328,7.328,0,0,0,13,12,4.9,4.9,0,0,0,12.007,10ZM8.016,6.992A3.768,3.768,0,0,1,4.024,3.5,3.768,3.768,0,0,1,8.016,0a3.768,3.768,0,0,1,3.991,3.5A3.768,3.768,0,0,1,8.016,6.992ZM8.016,2a1.8,1.8,0,0,0-2,1.5,1.8,1.8,0,0,0,2,1.5,1.8,1.8,0,0,0,2-1.5A1.8,1.8,0,0,0,8.016,2Z"/>
</svg>
