<svg xmlns="http://www.w3.org/2000/svg" width="16" height="16" viewBox="0 0 16 16">
  <metadata><?xpacket begin="﻿" id="W5M0MpCehiHzreSzNTczkc9d"?>
<x:xmpmeta xmlns:x="adobe:ns:meta/" x:xmptk="Adobe XMP Core 5.6-c138 79.159824, 2016/09/14-01:09:01        ">
   <rdf:RDF xmlns:rdf="http://www.w3.org/1999/02/22-rdf-syntax-ns#">
      <rdf:Description rdf:about=""/>
   </rdf:RDF>
</x:xmpmeta>
                                                                                                    
                                                                                                    
                                                                                                    
                                                                                                    
                                                                                                    
                                                                                                    
                                                                                                    
                                                                                                    
                                                                                                    
                                                                                                    
                                                                                                    
                                                                                                    
                                                                                                    
                                                                                                    
                                                                                                    
                                                                                                    
                                                                                                    
                                                                                                    
                                                                                                    
                                                                                                    
                           
<?xpacket end="w"?></metadata>
<defs>
    <style>
      .cls-1 {
        fill: #fff;
        fill-rule: evenodd;
      }
    </style>
  </defs>
  <path id="Rounded_Rectangle_3" data-name="Rounded Rectangle 3" class="cls-1" d="M13,11V3a1,1,0,0,0-1-1H4A1,1,0,0,0,3,3v8H1V1.5A1.5,1.5,0,0,1,2.5,0h11A1.5,1.5,0,0,1,15,1.5V11H13ZM5.5,4h5a0.5,0.5,0,0,1,0,1h-5A0.5,0.5,0,0,1,5.5,4Zm0,2h5a0.5,0.5,0,0,1,0,1h-5A0.5,0.5,0,0,1,5.5,6Zm0,2h5a0.5,0.5,0,0,1,0,1h-5A0.5,0.5,0,0,1,5.5,8Zm-4,5h13a0.5,0.5,0,0,1,0,1H1.5A0.5,0.5,0,0,1,1.5,13Zm0,2h13a0.5,0.5,0,0,1,0,1H1.5A0.5,0.5,0,0,1,1.5,15Zm4-4h5a0.5,0.5,0,0,1,0,1h-5A0.5,0.5,0,0,1,5.5,11Z"/>
</svg>
