<svg xmlns="http://www.w3.org/2000/svg" width="16" height="16" viewBox="0 0 16 16">
  <metadata><?xpacket begin="﻿" id="W5M0MpCehiHzreSzNTczkc9d"?>
<x:xmpmeta xmlns:x="adobe:ns:meta/" x:xmptk="Adobe XMP Core 5.6-c138 79.159824, 2016/09/14-01:09:01        ">
   <rdf:RDF xmlns:rdf="http://www.w3.org/1999/02/22-rdf-syntax-ns#">
      <rdf:Description rdf:about=""/>
   </rdf:RDF>
</x:xmpmeta>
                                                                                                    
                                                                                                    
                                                                                                    
                                                                                                    
                                                                                                    
                                                                                                    
                                                                                                    
                                                                                                    
                                                                                                    
                                                                                                    
                                                                                                    
                                                                                                    
                                                                                                    
                                                                                                    
                                                                                                    
                                                                                                    
                                                                                                    
                                                                                                    
                                                                                                    
                                                                                                    
                           
<?xpacket end="w"?></metadata>
<defs>
    <style>
      .cls-1 {
        fill: #fff;
        fill-rule: evenodd;
      }
    </style>
  </defs>
  <path class="cls-1" d="M13.5,16H2.5A1.5,1.5,0,0,1,1,14.5V1.5A1.5,1.5,0,0,1,2.5,0h9L15,3.5v11A1.5,1.5,0,0,1,13.5,16ZM13,4H12.5A1.5,1.5,0,0,1,11,2.5V2H4A1,1,0,0,0,3,3V13a1,1,0,0,0,1,1h8a1,1,0,0,0,1-1V4Zm-3,8H6a1,1,0,0,1,0-2h4A1,1,0,0,1,10,12Zm0.5-4h-5a0.5,0.5,0,0,1,0-1h5A0.5,0.5,0,0,1,10.5,8Zm-2-3h-3a0.5,0.5,0,0,1,0-1h3A0.5,0.5,0,0,1,8.5,5Z"/>
</svg>
