<svg xmlns="http://www.w3.org/2000/svg" width="35" height="35" viewBox="0 0 35 35">
  <metadata><?xpacket begin="﻿" id="W5M0MpCehiHzreSzNTczkc9d"?>
<x:xmpmeta xmlns:x="adobe:ns:meta/" x:xmptk="Adobe XMP Core 5.6-c138 79.159824, 2016/09/14-01:09:01        ">
   <rdf:RDF xmlns:rdf="http://www.w3.org/1999/02/22-rdf-syntax-ns#">
      <rdf:Description rdf:about=""/>
   </rdf:RDF>
</x:xmpmeta>
                                                                                                    
                                                                                                    
                                                                                                    
                                                                                                    
                                                                                                    
                                                                                                    
                                                                                                    
                                                                                                    
                                                                                                    
                                                                                                    
                                                                                                    
                                                                                                    
                                                                                                    
                                                                                                    
                                                                                                    
                                                                                                    
                                                                                                    
                                                                                                    
                                                                                                    
                                                                                                    
                           
<?xpacket end="w"?></metadata>
<defs>
    <style>
      .cls-1 {
        fill: #e3976b;
        fill-rule: evenodd;
      }
    </style>
  </defs>
  <path id="settimng" class="cls-1" d="M57.5,27H54.87a9.436,9.436,0,0,1-1.683,4.066l1.859,1.859a1.5,1.5,0,0,1-2.121,2.121l-1.859-1.859A9.436,9.436,0,0,1,47,34.87V37.5a1.5,1.5,0,0,1-3,0V34.87a9.436,9.436,0,0,1-4.066-1.683l-1.859,1.859a1.5,1.5,0,0,1-2.121-2.121l1.859-1.859A9.436,9.436,0,0,1,36.13,27H33.5a1.5,1.5,0,0,1,0-3h2.63a9.436,9.436,0,0,1,1.683-4.066l-1.859-1.859a1.5,1.5,0,0,1,2.121-2.121l1.859,1.859A9.436,9.436,0,0,1,44,16.13V13.5a1.5,1.5,0,0,1,3,0v2.63a9.436,9.436,0,0,1,4.066,1.683l1.859-1.859a1.5,1.5,0,0,1,2.121,2.121l-1.859,1.859A9.436,9.436,0,0,1,54.87,24H57.5A1.5,1.5,0,0,1,57.5,27Zm-12-8A6.5,6.5,0,1,0,52,25.5,6.5,6.5,0,0,0,45.5,19Z" transform="translate(-28 -8)"/>
</svg>
