<svg id="default_user_ic" xmlns="http://www.w3.org/2000/svg" width="32" height="32" viewBox="0 0 32 32">
  <metadata><?xpacket begin="﻿" id="W5M0MpCehiHzreSzNTczkc9d"?>
<x:xmpmeta xmlns:x="adobe:ns:meta/" x:xmptk="Adobe XMP Core 5.6-c138 79.159824, 2016/09/14-01:09:01        ">
   <rdf:RDF xmlns:rdf="http://www.w3.org/1999/02/22-rdf-syntax-ns#">
      <rdf:Description rdf:about=""/>
   </rdf:RDF>
</x:xmpmeta>
                                                                                                    
                                                                                                    
                                                                                                    
                                                                                                    
                                                                                                    
                                                                                                    
                                                                                                    
                                                                                                    
                                                                                                    
                                                                                                    
                                                                                                    
                                                                                                    
                                                                                                    
                                                                                                    
                                                                                                    
                                                                                                    
                                                                                                    
                                                                                                    
                                                                                                    
                                                                                                    
                           
<?xpacket end="w"?></metadata>
<defs>
    <style>
      .cls-1 {
        fill: #fff;
      }

      .cls-2 {
        fill: #e3976b;
        fill-rule: evenodd;
      }
    </style>
  </defs>
  <rect id="white_bg" class="cls-1" width="32" height="32"/>
  <path id="user_ic" class="cls-2" d="M1325.99,85.2a2.83,2.83,0,0,1-2.86,2.8h-10.27a2.83,2.83,0,0,1-2.86-2.8s-0.08-4.371,6.12-5.31a5.526,5.526,0,0,1-1.38-1.738l-1.19.193c0.54-1.336.19-1.246,0.2-3.09,0.06-6.1,4.54-5.214,4.54-5.214,5.16-.508,4.15,7.917,4.15,7.917l-0.99-.386a5.625,5.625,0,0,1-1.18,1.931C1326.4,81.765,1325.99,85.2,1325.99,85.2Zm-4.34-10.234c-0.36-.469-0.79.483-0.79,0.483a1.5,1.5,0,0,0-1.58-1.545c-1.05,1.5-4.89,1.9-4.89,1.9,0.29,2.426,1.79,4.277,3.61,4.277C1320.01,80.083,1321.65,77.792,1321.65,74.966Z" transform="translate(-1302 -63)"/>
</svg>
